<?xml version="1.0" standalone="no"?>
<!DOCTYPE svg PUBLIC "-//W3C//DTD SVG 20010904//EN"
 "http://www.w3.org/TR/2001/REC-SVG-20010904/DTD/svg10.dtd">
<svg version="1.0" xmlns="http://www.w3.org/2000/svg"
 width="248.000000pt" height="248.000000pt" viewBox="0 0 248.000000 248.000000"
 preserveAspectRatio="xMidYMid meet">
<metadata>
Created by potrace 1.11, written by Peter Selinger 2001-2013
</metadata>
<g transform="translate(0.000000,248.000000) scale(0.100000,-0.100000)"
fill="#000000" stroke="none">
<path d="M1248 2458 c11 -14 9 -15 -23 -8 -31 7 -34 6 -24 -7 10 -11 10 -14
-2 -11 -8 2 -17 10 -21 18 -5 11 -7 9 -7 -6 -1 -12 -8 -25 -17 -28 -13 -5 -14
-3 -6 7 8 9 8 17 0 27 -8 13 -9 12 -5 -2 4 -11 0 -17 -11 -17 -48 -2 -51 -4
-41 -25 9 -19 9 -19 -10 2 -23 27 -35 29 -22 4 7 -14 6 -19 -4 -19 -8 0 -12 4
-10 8 3 4 -2 9 -10 13 -10 4 -15 -1 -16 -17 -1 -21 -1 -21 -9 3 -4 14 -8 18
-9 10 -1 -17 -51 -23 -51 -8 0 5 7 8 16 6 10 -2 18 3 20 10 1 7 0 8 -2 3 -3
-6 -11 -8 -19 -5 -7 3 -16 0 -20 -5 -3 -6 -12 -8 -18 -4 -7 3 -3 -3 7 -15 11
-12 14 -22 8 -22 -7 0 -12 4 -12 10 0 5 -7 7 -15 4 -11 -5 -13 -2 -8 12 6 15
3 15 -17 -4 -14 -12 -31 -20 -39 -17 -9 3 -13 3 -9 0 3 -3 -5 -17 -19 -31 -13
-13 -22 -28 -19 -32 2 -4 -5 -9 -17 -9 -12 -1 -17 1 -11 5 6 4 17 18 24 32 12
23 11 23 -16 -5 -21 -21 -27 -34 -20 -43 6 -8 5 -17 -3 -25 -10 -9 -11 -8 -6
5 6 15 1 17 -30 14 -42 -5 -52 -11 -30 -20 9 -3 14 -2 10 3 -6 11 22 8 32 -4
4 -4 3 -5 -4 -1 -7 4 -18 -2 -24 -13 -12 -19 -13 -18 -30 3 l-18 21 5 -25 c2
-14 2 -19 -2 -12 -3 6 -10 12 -15 12 -6 0 -7 -5 -3 -12 5 -7 3 -8 -7 -2 -31
19 -59 10 -59 -21 0 -5 4 -4 9 4 5 8 17 16 25 17 9 1 14 -2 10 -7 -3 -5 -10
-6 -16 -3 -7 5 -9 2 -5 -8 7 -20 -21 -18 -34 3 -7 11 -9 11 -9 1 0 -7 -3 -11
-8 -8 -4 2 -8 -9 -8 -25 -2 -26 0 -28 15 -17 14 12 14 11 2 -4 -7 -10 -17 -15
-22 -12 -5 3 -7 -5 -5 -18 2 -13 9 -22 16 -20 6 1 9 -2 5 -7 -3 -6 -12 -8 -20
-4 -11 4 -13 1 -9 -11 3 -9 9 -14 13 -11 4 2 8 -2 8 -10 0 -8 -5 -11 -11 -7
-18 11 -36 11 -43 0 -3 -6 -2 -9 3 -6 5 3 16 -1 24 -10 13 -14 12 -15 -2 -9
-12 4 -19 0 -23 -14 -4 -10 -11 -19 -17 -19 -6 0 -5 6 2 15 10 13 11 18 1 28
-10 9 -11 8 -5 -7 5 -13 4 -17 -3 -13 -7 5 -10 -3 -9 -21 1 -17 -3 -29 -10
-29 -7 0 -10 7 -6 16 3 9 2 13 -2 9 -4 -3 -8 -12 -10 -20 -1 -7 -5 -19 -9 -25
-5 -7 -5 -13 0 -13 4 0 1 -5 -7 -10 -10 -6 -11 -10 -2 -10 6 0 12 -6 12 -14 0
-8 3 -16 8 -19 4 -2 1 -2 -5 -1 -7 2 -13 -1 -13 -7 0 -6 -4 -7 -10 -4 -6 3 -7
-1 -4 -9 3 -9 11 -13 18 -9 7 4 8 2 1 -5 -5 -6 -23 -13 -39 -16 -16 -3 -31 -8
-35 -12 -3 -4 2 -4 11 -1 19 7 34 -8 18 -18 -7 -4 -6 -14 2 -28 10 -20 10 -21
-6 -8 -9 8 -19 11 -23 7 -3 -3 -1 -6 5 -6 7 0 12 -5 12 -11 0 -5 -4 -8 -8 -5
-11 6 -9 -25 3 -43 5 -9 4 -12 -3 -7 -6 4 -18 -6 -27 -23 -11 -22 -12 -32 -3
-37 7 -5 5 -11 -7 -21 -11 -7 -14 -13 -8 -13 7 0 19 7 27 16 22 21 20 5 -1
-19 -10 -12 -12 -17 -4 -12 9 5 12 3 9 -6 -3 -8 -11 -13 -18 -11 -10 2 -11 0
-2 -11 8 -9 8 -17 1 -24 -8 -8 -8 -13 0 -17 6 -4 11 -14 11 -22 0 -8 -4 -13
-9 -9 -5 3 -13 0 -17 -6 -4 -7 -3 -9 4 -5 18 11 23 -11 7 -28 -14 -14 -12 -15
15 -11 17 2 28 0 24 -6 -3 -5 -9 -7 -14 -4 -4 3 -11 -2 -14 -11 -5 -12 -2 -15
9 -10 9 3 13 2 10 -4 -3 -6 -2 -10 4 -10 12 0 11 -41 -2 -58 -6 -7 -8 -14 -6
-16 2 -1 15 -10 29 -20 l25 -17 -27 7 c-19 4 -28 2 -28 -6 0 -6 4 -9 9 -6 4 3
19 -4 32 -16 14 -12 17 -19 8 -15 -9 3 -22 1 -30 -4 -11 -7 -11 -9 4 -9 9 0
17 -5 17 -11 0 -5 6 -7 13 -3 9 6 9 5 0 -8 -7 -8 -10 -18 -6 -21 3 -4 1 -12
-4 -19 -6 -7 -9 -20 -8 -29 2 -10 -4 -16 -14 -15 -12 1 -16 -8 -16 -40 0 -31
-4 -41 -15 -39 -8 1 -14 8 -12 15 1 6 -2 9 -8 5 -7 -4 -3 -16 10 -32 11 -14
20 -35 20 -47 0 -17 -2 -18 -10 -6 -5 8 -10 10 -10 4 0 -6 3 -14 7 -18 9 -9
12 -67 4 -81 -10 -18 -9 -35 1 -35 6 0 7 7 4 16 -4 10 -2 13 6 8 7 -5 8 -3 3
6 -5 9 -4 11 3 6 9 -5 9 -13 2 -26 -5 -10 -7 -20 -2 -23 4 -2 2 -3 -4 -1 -6 1
-10 -9 -8 -24 1 -15 -3 -33 -9 -41 -9 -12 -9 -13 1 -7 7 4 12 2 12 -4 0 -7 8
-9 21 -5 19 6 20 5 8 -8 -8 -8 -17 -13 -20 -11 -3 2 -6 -4 -6 -12 0 -10 4 -11
11 -4 17 17 30 11 15 -7 -11 -13 -11 -17 -1 -20 6 -3 10 -9 7 -14 -4 -5 1 -6
9 -3 11 4 16 0 16 -11 0 -9 -4 -13 -10 -10 -6 3 -7 -1 -3 -10 4 -11 8 -13 13
-5 5 7 11 6 21 -6 9 -12 10 -15 1 -10 -6 4 -12 2 -12 -3 0 -6 7 -11 15 -11 8
0 15 5 15 12 0 6 3 8 6 5 4 -4 2 -12 -4 -20 -9 -10 -4 -13 23 -13 18 0 31 4
29 8 -3 5 -2 8 3 7 22 -4 34 2 27 14 -4 7 -3 8 2 4 5 -5 9 -16 9 -24 0 -9 7
-18 15 -20 13 -4 13 -3 0 6 -8 6 -10 11 -4 11 18 0 31 -23 29 -47 -1 -14 4
-23 12 -23 8 0 12 4 9 8 -3 5 1 9 9 9 8 0 11 -5 7 -11 -11 -18 -12 -46 -2 -46
6 0 10 5 10 12 0 6 2 9 5 6 3 -3 1 -17 -4 -32 -8 -20 -7 -26 3 -26 8 0 16 -7
19 -14 4 -11 1 -13 -11 -10 -9 3 -6 -2 8 -10 14 -8 21 -15 17 -16 -4 0 -2 -10
5 -22 6 -13 13 -30 14 -38 2 -8 4 -24 6 -35 2 -11 7 -23 13 -27 6 -5 5 -12 -3
-20 -15 -15 -15 -24 1 -26 34 -3 50 -10 59 -28 8 -16 7 -17 -4 -4 -15 18 -33
20 -45 5 -4 -6 -4 -7 1 -3 5 4 23 -4 41 -17 17 -14 35 -22 39 -18 4 4 4 -1 0
-12 -6 -15 -4 -17 12 -12 18 7 18 6 2 -7 -26 -20 -22 -26 14 -22 30 4 31 3 13
-10 -10 -8 -15 -14 -9 -14 5 0 2 -5 -6 -10 -9 -6 -10 -10 -3 -10 6 0 15 5 18
10 10 16 25 12 25 -7 0 -14 -2 -15 -9 -5 -7 11 -9 11 -14 -1 -4 -10 0 -14 11
-12 9 1 25 -2 36 -7 12 -7 16 -7 12 0 -3 6 -1 14 5 18 7 4 9 3 6 -2 -3 -6 -1
-16 4 -24 8 -13 10 -13 19 0 6 9 10 10 10 3 0 -7 -8 -17 -17 -23 -15 -9 -15
-10 5 -5 22 6 23 5 12 -17 -10 -19 -10 -21 1 -10 14 13 33 17 26 5 -3 -5 12
-8 34 -9 25 0 36 3 32 10 -4 6 0 5 9 -2 19 -15 151 -15 141 1 -4 6 -1 7 6 2
18 -11 121 -13 121 -2 0 4 -4 6 -9 3 -5 -3 -15 2 -22 12 -13 15 -12 16 4 3 9
-7 17 -10 17 -6 0 4 7 2 14 -5 17 -14 116 -22 116 -10 0 5 -9 7 -20 5 -11 -2
-18 -1 -16 4 6 10 65 7 95 -6 13 -5 56 -8 95 -6 39 2 79 3 89 4 9 0 17 5 17
10 0 6 -5 7 -10 4 -5 -3 -10 1 -10 10 0 9 5 13 10 10 7 -4 9 3 6 18 -2 14 -2
28 2 31 6 7 12 50 14 104 1 21 4 28 9 20 4 -7 11 -9 15 -5 4 3 1 14 -7 24 -9
11 -10 14 -1 9 11 -7 17 5 13 27 -1 5 3 6 9 2 6 -4 8 -16 5 -28 -5 -19 -5 -20
5 -4 6 9 8 22 5 27 -3 6 1 13 9 16 9 3 16 10 16 16 0 5 -5 6 -12 2 -7 -4 -8
-3 -4 5 4 6 12 9 17 6 14 -9 11 29 -3 45 -11 12 -10 12 5 0 15 -11 20 -11 34
2 22 22 25 76 4 88 -11 6 -12 9 -3 10 7 0 11 4 7 9 -3 5 0 13 6 17 8 5 9 3 4
-6 -5 -8 -4 -11 3 -6 6 4 8 14 5 24 -6 15 -5 15 10 3 11 -9 17 -10 17 -2 0 6
-4 11 -10 11 -5 0 -10 7 -10 15 0 8 -6 15 -12 15 -10 0 -9 3 1 9 8 5 10 14 6
21 -5 8 -4 11 3 6 5 -3 12 -1 14 6 3 7 19 12 38 13 25 1 34 6 36 20 2 11 8 21
13 23 6 2 11 8 11 13 0 4 -8 6 -17 2 -10 -3 -6 3 9 15 14 12 34 22 45 22 11 0
14 3 7 8 -16 11 -13 41 4 35 11 -5 11 -7 0 -15 -10 -8 -10 -9 2 -5 8 2 16 9
16 15 1 7 2 19 3 28 1 9 6 12 14 8 9 -6 9 -4 -1 8 -10 13 -10 17 0 21 10 4 10
6 1 6 -7 1 -13 6 -13 12 0 5 6 7 13 3 6 -4 9 -4 5 1 -4 4 -3 14 2 21 8 8 6 17
-5 28 -15 15 -12 20 8 17 4 -1 4 7 -1 16 -12 25 -9 42 6 52 11 7 11 9 0 14 -9
3 -13 17 -12 36 1 17 -3 31 -8 31 -6 0 -7 7 -4 16 3 8 2 13 -2 10 -4 -2 -8 9
-7 25 0 16 4 28 10 25 5 -2 11 12 11 31 1 34 -5 39 -10 7 -2 -10 -8 -19 -15
-20 -7 -2 -7 0 -1 3 7 3 7 10 -2 21 -10 12 -10 14 0 8 8 -5 12 -1 12 13 0 11
5 23 12 27 7 5 8 3 3 -6 -6 -9 -4 -11 4 -5 9 5 7 12 -8 26 -23 21 -29 38 -8
21 9 -8 17 -8 27 0 13 8 12 9 -1 5 -18 -6 -44 37 -33 54 3 6 0 18 -7 27 -7 9
-10 14 -5 10 10 -8 52 29 43 39 -4 3 -7 1 -7 -5 0 -6 -9 -10 -20 -9 -11 1 -20
4 -20 8 0 9 41 24 54 20 5 -1 4 4 -3 12 -9 12 -9 16 1 20 9 4 10 6 1 6 -7 1
-10 8 -7 16 4 8 1 15 -6 15 -6 0 -8 -4 -5 -10 3 -5 2 -10 -4 -10 -5 0 -9 9 -8
19 1 12 6 17 15 13 12 -4 12 -1 2 18 -11 20 -10 22 4 17 9 -4 16 -2 16 3 0 6
-6 10 -14 10 -8 0 -18 4 -21 10 -3 5 0 7 8 4 19 -7 32 12 16 22 -8 5 -9 3 -4
-7 8 -12 6 -12 -8 0 -18 15 -23 26 -7 16 6 -3 13 1 16 9 3 9 11 13 18 9 8 -4
8 -2 -1 7 -14 15 -6 43 10 33 6 -3 7 -1 3 6 -4 6 -11 9 -16 6 -13 -8 -20 21
-7 34 6 6 8 11 4 11 -4 0 -3 8 2 18 7 14 6 25 -6 42 -9 13 -12 20 -6 17 6 -4
13 -4 16 0 2 5 3 3 1 -3 -1 -6 2 -17 8 -25 8 -12 9 -12 5 1 -2 8 0 24 6 35 5
11 6 17 2 13 -5 -4 -15 -2 -23 5 -13 10 -14 9 -7 -3 7 -12 6 -13 -7 -3 -8 7
-19 9 -23 5 -5 -4 -1 4 8 18 20 28 21 40 6 40 -5 0 -8 -4 -4 -9 3 -5 1 -13 -5
-16 -6 -4 -10 -3 -9 2 1 4 1 17 0 28 -1 17 -3 18 -11 5 -10 -14 -10 -11 -1 40
1 3 6 -2 12 -10 9 -13 10 -13 6 0 -2 8 -10 15 -18 16 -8 0 -22 4 -31 8 -14 6
-15 11 -5 21 10 11 13 10 20 -1 4 -8 13 -14 20 -14 8 0 9 3 1 8 -6 4 -22 24
-36 45 -15 23 -29 34 -33 28 -3 -6 -2 -11 4 -11 6 0 15 -9 21 -20 7 -14 7 -20
0 -20 -5 0 -10 6 -10 14 0 8 -7 16 -14 19 -12 5 -13 13 -6 37 8 28 7 30 -6 19
-13 -10 -14 -8 -10 15 3 15 1 24 -5 21 -5 -4 -7 -12 -3 -18 3 -7 -1 -4 -9 5
-8 10 -16 15 -19 12 -3 -2 -8 2 -12 11 -4 13 -2 14 14 5 13 -7 21 -7 26 2 4 7
3 8 -4 4 -7 -4 -12 -2 -12 3 0 6 -3 10 -7 10 -20 -3 -34 2 -28 11 4 6 -1 7
-12 3 -16 -6 -16 -5 -4 10 13 16 2 25 -13 10 -22 -23 -41 -5 -23 23 3 6 -2 19
-13 29 -11 10 -20 25 -20 34 0 14 -2 14 -10 1 -6 -10 -6 -16 0 -18 6 -2 7 -9
4 -14 -5 -7 -2 -8 6 -3 9 6 11 4 5 -5 -6 -9 -4 -11 5 -5 9 6 11 4 5 -5 -6 -10
-12 -8 -25 8 -10 12 -21 18 -25 14 -5 -4 -5 -2 -2 5 4 6 4 13 0 16 -5 2 -2 2
5 1 6 -2 12 4 12 12 0 11 -6 13 -20 9 -20 -6 -23 -2 -23 36 0 13 -7 16 -28 12
-18 -2 -29 0 -29 7 0 6 6 8 13 4 6 -3 0 5 -15 20 -15 14 -31 26 -35 26 -4 -1
2 -9 14 -19 l23 -19 -24 2 c-13 0 -22 5 -18 10 3 5 -2 7 -11 3 -9 -3 -19 -2
-22 4 -4 5 -11 6 -17 3 -7 -5 -8 -2 -3 6 6 10 4 12 -11 6 -10 -4 -15 -4 -11 0
10 11 -12 34 -28 28 -7 -3 -16 -1 -20 5 -3 6 0 9 8 5 8 -3 20 3 28 12 12 16
12 17 -1 8 -16 -10 -61 -14 -56 -4 2 3 0 14 -5 25 -7 19 -8 19 -8 -3 -1 -13
-5 -20 -11 -17 -6 4 -7 12 -3 18 4 7 0 6 -10 -2 -18 -15 -23 -3 -7 17 7 9 7 9
-2 2 -7 -6 -23 -4 -46 5 -42 18 -45 18 -36 3 5 -9 2 -9 -9 1 -17 14 -24 26 -9
17 5 -3 9 0 9 7 0 7 -8 13 -18 13 -10 0 -15 -4 -13 -8 3 -4 -1 -8 -10 -8 -8 0
-17 6 -20 13 -3 6 -3 0 -1 -16 2 -16 0 -25 -6 -22 -5 4 -7 10 -4 15 3 5 -5 14
-17 21 -20 11 -22 11 -10 -3z m-118 -42 c0 -3 -4 -8 -10 -11 -5 -3 -10 -1 -10
4 0 6 5 11 10 11 6 0 10 -2 10 -4z m265 -16 c3 -6 -1 -7 -9 -4 -18 7 -21 14
-7 14 6 0 13 -4 16 -10z m-491 -42 c-4 -6 -9 -6 -14 2 -5 8 -9 7 -13 -4 -4 -9
-10 -16 -14 -15 -21 4 -33 -2 -27 -13 5 -7 3 -8 -6 -3 -10 6 -9 11 5 21 10 7
21 11 25 9 5 -3 10 2 14 10 3 8 12 12 21 9 8 -3 12 -11 9 -16z m806 -98 c0 -5
-5 -10 -11 -10 -5 0 -7 5 -4 10 3 6 8 10 11 10 2 0 4 -4 4 -10z m-1140 -60 c0
-5 -5 -10 -11 -10 -5 0 -7 5 -4 10 3 6 8 10 11 10 2 0 4 -4 4 -10z m-100 -241
c0 -4 -7 -9 -15 -13 -9 -3 -12 -12 -9 -23 5 -14 4 -15 -4 -4 -8 10 -9 40 -3
47 4 4 31 -1 31 -7z m-55 -129 c3 -6 -1 -7 -9 -4 -18 7 -21 14 -7 14 6 0 13
-4 16 -10z m-11 -31 c-3 -5 -10 -7 -15 -3 -5 3 -7 10 -3 15 3 5 10 7 15 3 5
-3 7 -10 3 -15z m-14 -53 c0 -3 -4 -8 -10 -11 -5 -3 -10 -1 -10 4 0 6 5 11 10
11 6 0 10 -2 10 -4z m-37 -66 c-3 -11 -9 -20 -15 -20 -5 0 -4 9 2 20 6 11 12
20 14 20 2 0 2 -9 -1 -20z m1697 -100 c0 -5 -2 -10 -4 -10 -3 0 -8 5 -11 10
-3 6 -1 10 4 10 6 0 11 -4 11 -10z m-1697 -25 c-3 -8 -10 -15 -15 -15 -7 0 -6
5 1 13 6 8 7 18 3 22 -4 5 -2 5 5 1 7 -4 10 -13 6 -21z m12 -75 c-3 -5 -12
-10 -18 -10 -7 0 -6 4 3 10 19 12 23 12 15 0z m25 -140 c0 -5 -7 -7 -15 -4 -8
4 -15 8 -15 10 0 2 7 4 15 4 8 0 15 -4 15 -10z m-10 -214 c0 -3 -4 -8 -10 -11
-5 -3 -10 -1 -10 4 0 6 5 11 10 11 6 0 10 -2 10 -4z m-10 -87 c0 -14 -17 -10
-23 5 -4 10 -1 13 9 9 7 -3 14 -9 14 -14z m1666 -46 c-4 -9 -2 -21 4 -28 11
-14 -5 -33 -17 -21 -4 3 -1 6 6 6 7 0 5 9 -6 27 -13 19 -14 25 -4 18 11 -6 13
-4 8 9 -4 11 -3 15 4 11 6 -4 8 -14 5 -22z m-1646 -69 c0 -8 -19 -13 -24 -6
-3 5 1 9 9 9 8 0 15 -2 15 -3z m1644 -10 c9 -24 2 -26 -12 -4 -7 11 -8 20 -3
20 5 0 12 -7 15 -16z m10 -75 c-8 -14 -21 -11 -21 5 0 8 6 12 14 9 7 -3 10 -9
7 -14z m-27 -25 c-3 -3 -12 -4 -19 -1 -8 3 -5 6 6 6 11 1 17 -2 13 -5z m-1647
-14 c0 -5 -5 -10 -11 -10 -5 0 -7 5 -4 10 3 6 8 10 11 10 2 0 4 -4 4 -10z m40
-82 c0 -4 -4 -8 -9 -8 -6 0 -12 4 -15 8 -3 5 1 9 9 9 8 0 15 -4 15 -9z m34
-44 c3 -8 2 -12 -4 -9 -6 3 -10 10 -10 16 0 14 7 11 14 -7z m1483 -58 c0 -15
-21 -16 -34 -1 -4 4 -2 5 5 1 6 -4 12 -2 12 3 0 6 4 11 8 11 5 0 9 -6 9 -14z
m-94 -101 c-3 -9 -8 -14 -10 -11 -3 3 -2 9 2 15 9 16 15 13 8 -4z m-8 -104
c-3 -36 -13 -53 -27 -45 -8 5 -6 11 3 18 8 6 14 18 14 26 -1 15 4 30 9 30 2 0
2 -13 1 -29z m-935 -315 c0 -3 -4 -8 -10 -11 -5 -3 -10 -1 -10 4 0 6 5 11 10
11 6 0 10 -2 10 -4z m765 -66 c3 -6 -1 -7 -9 -4 -18 7 -21 14 -7 14 6 0 13 -4
16 -10z m-140 -10 c3 -6 -1 -7 -9 -4 -18 7 -21 14 -7 14 6 0 13 -4 16 -10z
m92 -4 c2 -2 -9 -3 -26 -2 -16 0 -27 4 -25 8 4 7 43 3 51 -6z"/>
<path d="M1551 2364 c-1 -15 57 -56 64 -44 3 6 -1 10 -9 10 -9 0 -16 5 -16 10
0 6 -6 10 -14 10 -8 0 -17 6 -19 13 -3 6 -6 7 -6 1z"/>
<path d="M1735 2240 c3 -5 8 -10 11 -10 2 0 4 5 4 10 0 6 -5 10 -11 10 -5 0
-7 -4 -4 -10z"/>
<path d="M2056 1792 c-2 -4 4 -8 14 -8 10 0 16 4 14 8 -3 4 -9 8 -14 8 -5 0
-11 -4 -14 -8z"/>
<path d="M2079 1690 c-3 -20 -4 -25 -13 -40 -5 -8 -6 -12 -1 -8 4 4 15 2 24
-5 14 -10 14 -10 5 3 -6 8 -10 25 -8 38 2 12 2 22 -1 22 -3 0 -6 -4 -6 -10z"/>
<path d="M331 1404 c-1 -6 5 -17 12 -23 10 -8 14 -7 14 4 0 8 -4 12 -8 9 -4
-2 -10 2 -12 8 -4 8 -6 9 -6 2z"/>
<path d="M2036 1321 c-3 -5 1 -11 9 -14 9 -4 12 -1 8 9 -6 16 -10 17 -17 5z"/>
<path d="M2030 1279 c0 -5 5 -7 10 -4 6 3 10 8 10 11 0 2 -4 4 -10 4 -5 0 -10
-5 -10 -11z"/>
<path d="M2045 1260 c-3 -5 -1 -10 4 -10 6 0 11 5 11 10 0 6 -2 10 -4 10 -3 0
-8 -4 -11 -10z"/>
<path d="M376 1215 c3 -19 1 -24 -7 -19 -8 4 -9 3 -5 -5 4 -6 12 -9 17 -6 9 6
7 40 -4 51 -3 4 -4 -6 -1 -21z"/>
<path d="M346 1161 c-4 -5 3 -7 14 -4 23 6 26 13 6 13 -8 0 -17 -4 -20 -9z"/>
<path d="M2035 1080 c-3 -5 -1 -10 4 -10 6 0 11 5 11 10 0 6 -2 10 -4 10 -3 0
-8 -4 -11 -10z"/>
<path d="M2050 1051 c0 -6 4 -13 10 -16 6 -3 7 1 4 9 -7 18 -14 21 -14 7z"/>
<path d="M1966 672 c-3 -6 -1 -14 5 -17 14 -9 20 -2 10 14 -6 8 -11 9 -15 3z"/>
<path d="M516 605 c-3 -8 -1 -15 4 -15 6 0 10 7 10 15 0 8 -2 15 -4 15 -2 0
-6 -7 -10 -15z"/>
<path d="M470 600 c0 -5 5 -10 11 -10 5 0 7 5 4 10 -3 6 -8 10 -11 10 -2 0 -4
-4 -4 -10z"/>
<path d="M550 580 c0 -5 5 -10 11 -10 5 0 7 5 4 10 -3 6 -8 10 -11 10 -2 0 -4
-4 -4 -10z"/>
<path d="M1873 578 c-20 -26 -23 -37 -12 -44 7 -4 9 -3 5 4 -3 6 1 18 10 27 9
9 14 18 12 21 -3 2 -10 -1 -15 -8z"/>
<path d="M1840 460 c-9 -6 -10 -10 -3 -10 6 0 15 5 18 10 8 12 4 12 -15 0z"/>
<path d="M644 404 c9 -8 14 -20 11 -25 -4 -5 1 -9 10 -9 14 0 14 2 -1 25 -9
14 -21 25 -26 25 -5 0 -2 -7 6 -16z"/>
<path d="M655 350 c-5 -9 -4 -11 3 -6 11 6 16 -6 13 -26 0 -5 4 -8 9 -8 14 0
13 13 -3 35 -11 14 -16 15 -22 5z"/>
<path d="M1813 335 c-3 -9 -3 -18 -1 -21 3 -3 8 4 11 16 6 23 -1 27 -10 5z"/>
<path d="M670 296 c0 -2 7 -7 16 -10 8 -3 12 -2 9 4 -6 10 -25 14 -25 6z"/>
<path d="M748 183 c7 -3 16 -2 19 1 4 3 -2 6 -13 5 -11 0 -14 -3 -6 -6z"/>
<path d="M768 163 c6 -2 9 -10 6 -15 -4 -7 -2 -8 5 -4 13 9 5 26 -12 25 -9 0
-8 -2 1 -6z"/>
<path d="M1716 158 c3 -5 10 -6 15 -3 13 9 11 12 -6 12 -8 0 -12 -4 -9 -9z"/>
<path d="M1709 123 c-13 -16 -12 -17 4 -4 16 13 21 21 13 21 -2 0 -10 -8 -17
-17z"/>
<path d="M1711 92 c-1 -7 -5 -11 -10 -8 -11 7 -8 -20 3 -31 4 -4 6 -1 4 7 -1
8 2 14 9 15 6 0 15 4 20 9 4 5 3 6 -4 3 -6 -4 -14 -1 -16 5 -4 10 -6 10 -6 0z"/>
<path d="M1446 8 c3 -4 9 -8 15 -8 5 0 9 4 9 8 0 5 -7 9 -15 9 -8 0 -12 -4 -9
-9z"/>
</g>
</svg>
